# xmcd CD database file
#
# Track frame offsets:
#	150
#	21308
#	39534
#	58272
#	76948
#	99077
#	125609
#	152500
#	170872
#	191616
#
# Disc length: 2823 seconds
#
# Revision: 1
# Processed by: cddbd v1.5.2PL0 Copyright (c) Steve Scherf et al.
# Submitted via: CDex 1.51
#
DISCID=7e0b050a
DTITLE=HELSTAR - The James Rivera Legacy
DYEAR=2001
DGENRE=Heavy Metal
TTITLE0=Sirens of the Sun
TTITLE1=Changeless Season
TTITLE2=Social Circle
TTITLE3=Scalpel and the Skin
TTITLE4=Sinister Deity
TTITLE5=Rage in the Wind
TTITLE6=Black Silhouette Skies
TTITLE7=Nightmare Extraordinaire
TTITLE8=Changeless Season
TTITLE9=Lost to be Found, Found to be Lost
EXTD=YEAR: 2001
EXTT0=
EXTT1=
EXTT2=
EXTT3=
EXTT4=
EXTT5=
EXTT6=
EXTT7=
EXTT8=
EXTT9=
PLAYORDER=
